<svg xmlns="http://www.w3.org/2000/svg" viewBox="0 0 512 512">
  <rect width="512" height="512" rx="100" fill="#0a0a0a"/>
  <rect x="60" y="60" width="80" height="80" rx="12" fill="#22c55e" opacity="0.9"/>
  <rect x="156" y="60" width="80" height="80" rx="12" fill="#f59e0b" opacity="0.7"/>
  <rect x="252" y="60" width="80" height="80" rx="12" fill="#f59e0b" opacity="0.5"/>
  <rect x="348" y="60" width="104" height="80" rx="12" fill="#1a1a1a" opacity="0.8"/>
  <rect x="60" y="156" width="80" height="80" rx="12" fill="#f59e0b" opacity="0.7"/>
  <rect x="156" y="156" width="80" height="80" rx="12" fill="#22c55e" opacity="0.9"/>
  <rect x="252" y="156" width="80" height="80" rx="12" fill="#f59e0b" opacity="0.4"/>
  <rect x="348" y="156" width="104" height="80" rx="12" fill="#1a1a1a" opacity="0.8"/>
  <rect x="60" y="252" width="80" height="80" rx="12" fill="#f59e0b" opacity="0.5"/>
  <rect x="156" y="252" width="80" height="80" rx="12" fill="#f59e0b" opacity="0.3"/>
  <rect x="252" y="252" width="80" height="80" rx="12" fill="#22c55e" opacity="0.9"/>
  <rect x="348" y="252" width="104" height="80" rx="12" fill="#1a1a1a" opacity="0.8"/>
  <rect x="60" y="348" width="290" height="104" rx="12" fill="#1a1a1a" opacity="0.8"/>
  <rect x="348" y="348" width="104" height="104" rx="12" fill="#22c55e" opacity="0.9"/>
  <text x="100" y="115" text-anchor="middle" fill="white" font-family="system-ui, sans-serif" font-weight="bold" font-size="36">AA</text>
  <text x="196" y="115" text-anchor="middle" fill="white" font-family="system-ui, sans-serif" font-weight="bold" font-size="28">AKs</text>
  <text x="292" y="115" text-anchor="middle" fill="white" font-family="system-ui, sans-serif" font-weight="bold" font-size="28">AQs</text>
  <text x="196" y="211" text-anchor="middle" fill="white" font-family="system-ui, sans-serif" font-weight="bold" font-size="36">KK</text>
  <text x="292" y="211" text-anchor="middle" fill="white" font-family="system-ui, sans-serif" font-weight="bold" font-size="28">KQs</text>
  <text x="292" y="307" text-anchor="middle" fill="white" font-family="system-ui, sans-serif" font-weight="bold" font-size="36">QQ</text>
  <text x="400" y="417" text-anchor="middle" fill="white" font-family="system-ui, sans-serif" font-weight="bold" font-size="36">JJ</text>
</svg>